Coordinates
version=1
nRows=5
nColumns=63
inDegrees=yes

Units are S.I. units (second, meters, Newtons, ...)
If the header above contains a line with 'inDegrees', this indicates whether rotational values are in degrees (yes) or radians (no).

endheader
time	pelvis_tilt	pelvis_list	pelvis_rotation	pelvis_tx	pelvis_ty	pelvis_tz	hip_flexion_r	hip_adduction_r	hip_rotation_r	knee_angle_r	knee_angle_r_beta	ankle_angle_r	subtalar_angle_r	mtp_angle_r	hip_flexion_l	hip_adduction_l	hip_rotation_l	knee_angle_l	knee_angle_l_beta	ankle_angle_l	subtalar_angle_l	mtp_angle_l	L5_S1_Flex_Ext	L5_S1_Lat_Bending	L5_S1_axial_rotation	L4_L5_Flex_Ext	L4_L5_Lat_Bending	L4_L5_axial_rotation	L3_L4_Flex_Ext	L3_L4_Lat_Bending	L3_L4_axial_rotation	L2_L3_Flex_Ext	L2_L3_Lat_Bending	L2_L3_axial_rotation	L1_L2_Flex_Ext	L1_L2_Lat_Bending	L1_L2_axial_rotation	L1_T12_Flex_Ext	L1_T12_Lat_Bending	L1_T12_axial_rotation	Abs_r3	Abs_r2	Abs_r1	Abs_t1	Abs_t2	neck_flexion	neck_bending	neck_rotation	arm_flex_r	arm_add_r	arm_rot_r	elbow_flex_r	pro_sup_r	wrist_flex_r	wrist_dev_r	arm_flex_l	arm_add_l	arm_rot_l	elbow_flex_l	pro_sup_l	wrist_flex_l	wrist_dev_l
     11.24200000	    -39.88029140	      4.35087276	      2.61676097	     -0.15609272	      1.01113936	      0.03359304	     83.95278570	     -6.62135075	      4.37622971	     49.95316714	      0.87184724	     -5.89425389	    -10.48123335	      0.00000000	    108.90683167	     -6.87902440	     -1.63304576	    114.69579175	      2.00181920	     -3.47266436	    -17.25340709	      0.00000000	     -0.05306150	     -0.54815085	     -0.46525191	     -0.09854052	     -0.72904062	     -0.49433015	     -0.08717474	     -1.33277397	     -0.49433015	     -0.06064399	     -1.33277397	     -0.40709542	     -0.04927291	     -1.11778920	     -0.37801718	     -0.03031934	     -0.84908566	     -0.34893893	     -0.37901302	     -6.20079200	     -2.58759154	      0.00000000	      0.00000000	      0.00000000	      0.00000000	      0.00000000	     69.57892286	     -8.12402356	     23.89193424	     34.19322975	     54.41743570	      0.00000000	      5.00000014	     69.41084212	    -11.58616304	     28.48177443	     35.89095802	     62.23057876	      0.00000000	      5.00000014
     11.25000000	    -39.83476868	      4.64838031	      2.89243403	     -0.15559078	      1.01111288	      0.03366903	     82.58928507	     -7.00515584	      4.41405795	     48.95710834	      0.85446273	     -5.46139105	    -10.05561937	      0.00000000	    110.00882174	     -6.90149353	     -2.04514338	    115.39949814	      2.01410120	     -1.87797539	    -16.35084988	      0.00000000	     -0.05560839	     -0.60040099	     -0.50311203	     -0.10327033	     -0.79853331	     -0.53455653	     -0.09135902	     -1.45981496	     -0.53455653	     -0.06355482	     -1.45981496	     -0.44022303	     -0.05163795	     -1.22433769	     -0.40877853	     -0.03177463	     -0.93002113	     -0.37733402	     -0.39720514	     -6.79185604	     -2.79815819	      0.00000000	      0.00000000	      0.00000000	      0.00000000	      0.00000000	     69.44266298	     -8.17686058	     23.75350160	     34.08295948	     54.27483218	      0.00000000	      5.00000014	     69.44025249	    -11.65599798	     28.76058470	     35.94770441	     62.00158766	      0.00000000	      5.00000014
     11.25800000	    -39.88218564	      4.94545784	      3.23091418	     -0.15533762	      1.01125806	      0.03363100	     81.33719446	     -7.49165728	      4.22156613	     47.91043302	      0.83619480	     -5.64276797	    -10.02337885	      0.00000000	    111.19657771	     -6.87088661	     -2.58231157	    115.81532347	      2.02135872	     -1.48915278	    -16.40781320	      0.00000000	     -0.05440372	     -0.65288901	     -0.54719456	     -0.10103315	     -0.86834238	     -0.58139422	     -0.08937987	     -1.58743433	     -0.58139422	     -0.06217801	     -1.58743433	     -0.47879524	     -0.05051930	     -1.33137126	     -0.44459558	     -0.03108629	     -1.01132507	     -0.41039592	     -0.38860035	     -7.38561102	     -3.04333197	      0.00000000	      0.00000000	      0.00000000	      0.00000000	      0.00000000	     69.31713693	     -8.31341294	     23.67557101	     34.13942159	     54.26567926	      0.00000000	      5.00000014	     69.45217275	    -11.74315719	     29.08934431	     36.22498973	     62.03940126	      0.00000000	      5.00000014
     11.26700000	    -39.88602157	      5.09730917	      3.46553217	     -0.15506702	      1.01095561	      0.03370960	     80.38114806	     -7.74535840	      4.19962372	     47.65155682	      0.83167656	     -5.73133743	    -10.05319742	      0.00000000	    112.44165131	     -6.94743447	     -2.99258071	    116.26974011	      2.02928979	     -1.15264290	    -16.48194781	      0.00000000	     -0.05286875	     -0.68500139	     -0.57004987	     -0.09818256	     -0.91105185	     -0.60567799	     -0.08685808	     -1.66551238	     -0.60567799	     -0.06042370	     -1.66551238	     -0.49879364	     -0.04909393	     -1.39685483	     -0.46316552	     -0.03020921	     -1.06106715	     -0.42753740	     -0.37763623	     -7.74887272	     -3.17044638	      0.00000000	      0.00000000	      0.00000000	      0.00000000	      0.00000000	     69.24917823	     -8.43620430	     23.63099026	     34.09813335	     54.26535893	      0.00000000	      5.00000014	     69.48152573	    -11.73835960	     29.21168122	     36.34793429	     62.06168429	      0.00000000	      5.00000014
     11.27500000	    -39.93488971	      5.27959792	      3.85940735	     -0.15475461	      1.01123890	      0.03364674	     79.12863348	     -8.20187020	      3.92530723	     46.75183691	      0.81597349	     -5.36995675	    -10.29115957	      0.00000000	    113.44225536	     -6.81284644	     -3.47740390	    116.31732613	      2.03012032	     -0.32268586	    -16.39457889	      0.00000000	     -0.05400257	     -0.72362912	     -0.63303156	     -0.10028817	     -0.96242673	     -0.67259603	     -0.08872082	     -1.75943185	     -0.67259603	     -0.06171954	     -1.75943185	     -0.55390261	     -0.05014679	     -1.47562450	     -0.51433814	     -0.03085707	     -1.12090151	     -0.47477367	     -0.38573496	     -8.18583735	     -3.52073162	      0.00000000	      0.00000000	      0.00000000	      0.00000000	      0.00000000	     69.08454653	     -8.51894163	     23.52413831	     34.20952495	     54.25081031	      0.00000000	      5.00000014	     69.50827249	    -11.90718943	     29.71095569	     36.64727325	     62.12496010	      0.00000000	      5.00000014
